
<svg width="800" height="800" viewBox="0 0 800 800" xmlns="http://www.w3.org/2000/svg">
  <defs>
    <linearGradient id="grad" x1="0%" y1="0%" x2="100%" y2="100%">
      <stop offset="0%" style="stop-color:#FFFFF0;stop-opacity:1" />
      <stop offset="100%" style="stop-color:#C8A882;stop-opacity:1" />
    </linearGradient>
    <filter id="shadow" x="-10%" y="-10%" width="120%" height="120%">
      <feDropShadow dx="0" dy="15" stdDeviation="20" flood-color="#4A0E2D" flood-opacity="0.1" />
    </filter>
  </defs>

  <!-- Background -->
  <rect width="100%" height="100%" fill="url(#grad)" />
  
  <!-- Content Card Overlay -->
  <rect x="100" y="100" width="600" height="600" rx="20" fill="#FFFFF0" fill-opacity="0.8" filter="url(#shadow)" stroke="#B76E79" stroke-width="1.5" stroke-opacity="0.3" />

  <!-- Botanical Decorative Motif -->
  <path d="M400,200 C430,250 480,260 500,300 C470,300 440,280 400,250 C360,280 330,300 300,300 C320,260 370,250 400,200 Z" fill="#B76E79" opacity="0.3" />
  <path d="M400,250 C410,290 430,310 450,330 C420,330 405,310 400,290 C395,310 380,330 350,330 C370,310 390,290 400,250 Z" fill="#C8A882" opacity="0.4" />
  <circle cx="400" cy="280" r="3" fill="#4A0E2D" />

  <!-- Core Brand Text -->
  <text x="400" y="400" font-family="Cormorant Garamond, serif" font-weight="300" font-size="44" fill="#4A0E2D" text-anchor="middle" letter-spacing="3">NYYRAA</text>
  <text x="400" y="440" font-family="Great Vibes, cursive" font-size="36" fill="#B76E79" text-anchor="middle">Beauty</text>

  <!-- Title / Subtitle of Image -->
  <text x="400" y="520" font-family="Lato, sans-serif" font-weight="700" font-size="22" fill="#4A0E2D" text-anchor="middle" letter-spacing="1" text-transform="uppercase">Skincare Flatlay</text>
  <text x="400" y="560" font-family="Lato, sans-serif" font-weight="300" font-size="16" fill="rgba(74, 14, 45, 0.7)" text-anchor="middle">Fermented Rice Ritual</text>

  <!-- Border Frame -->
  <rect x="40" y="40" width="720" height="720" fill="none" stroke="#FFFFF0" stroke-width="2" stroke-opacity="0.3" />
  <rect x="60" y="60" width="680" height="680" fill="none" stroke="#C8A882" stroke-width="1" stroke-opacity="0.2" />
</svg>
  